<svg xmlns="http://www.w3.org/2000/svg" width="583.768" height="513.99" viewBox="0 0 583.768 513.99"><g id="ai-chatbots" transform="translate(-61.964 -99)"><g id="freepik--background-complete--inject-2" transform="translate(67.49 105.118)"><path id="Pfad_27525" data-name="Pfad 27525" d="M546.573 297.884V365.1a22.029 22.029 0 01-22.031 22.03H283.531a22.03 22.03 0 01-22.014-22.03v-56.8L231.5 276.773l292.98-.9a22.015 22.015 0 0122.093 21.927z" transform="translate(31.669 -1.67)" fill="rgba(0,0,0,0.1)"/><path id="Pfad_27526" data-name="Pfad 27526" d="M272.856 304.414l218.713-1.014-.032-6.72-218.7 1.014z" transform="translate(55.848 9.501)" fill="rgba(0,0,0,0.13)"/><path id="Pfad_27527" data-name="Pfad 27527" d="M272.856 318.358l218.713-1-.032-6.72-218.7 1z" transform="translate(55.848 17.666)" fill="rgba(0,0,0,0.13)"/><path id="Pfad_27623" data-name="Pfad 27623" d="M272.856 318.358l218.713-1-.032-6.72-218.7 1z" transform="translate(55.848 39.775)" fill="rgba(0,0,0,0.13)"/><path id="Rechteck_131" data-name="Rechteck 131" transform="rotate(-.286 70657.827 -65666.39)" fill="#e6e6e6" d="M0 0h86.534v6.72H0z"/><path id="Pfad_27528" data-name="Pfad 27528" d="M437.117 136.32v73.491a12.679 12.679 0 01-12.679 12.679H303.813a12.68 12.68 0 01-12.679-12.678v-69.593a12.68 12.68 0 0112.678-12.679h142.149z" transform="translate(66.547 -88.425)" fill="rgba(0,0,0,0.1)"/><path id="Pfad_27529" data-name="Pfad 27529" d="M291.226 117.457v44.583a14.6 14.6 0 01-14.581 14.613h-159.93a14.6 14.6 0 01-14.6-14.6v-37.67L82.26 103.462l194.322-.6a14.6 14.6 0 0114.644 14.549z" transform="translate(-55.618 -102.86)" fill="rgba(0,0,0,0.2)"/><path id="Pfad_27530" data-name="Pfad 27530" d="M109.7 121.789l145.048-.666-.016-4.454-145.048.666z" transform="translate(-39.581 -95.783)" fill="rgba(0,0,0,0.35)"/><path id="Pfad_27531" data-name="Pfad 27531" d="M109.7 131.055l145.048-.681-.016-4.454-145.048.666z" transform="translate(-39.581 -90.373)" fill="rgba(0,0,0,0.35)"/><path id="Rechteck_132" data-name="Rechteck 132" transform="rotate(-.286 10157.74 -14013.775)" fill="rgba(0,0,0,0.35)" d="M0 0h57.388v4.453H0z"/><path id="Pfad_27532" data-name="Pfad 27532" d="M272.976 188.709a11.376 11.376 0 0111.414-11.34l151.462.469-15.479 16.307v29.363A11.377 11.377 0 01409 234.886H284.34a11.377 11.377 0 01-11.364-11.386z" transform="translate(55.927 -51.281)" fill="rgba(0,0,0,0.2)"/><path id="Pfad_27533" data-name="Pfad 27533" d="M396.1 188.652l-113.056-.519-.012 3.471 113.056.519z" transform="translate(61.808 -44.986)" fill="rgba(0,0,0,0.35)"/><path id="Pfad_27534" data-name="Pfad 27534" d="M396.1 195.862l-113.056-.519-.012 3.471 113.056.531z" transform="translate(61.808 -40.769)" fill="rgba(0,0,0,0.35)"/><path id="Rechteck_133" data-name="Rechteck 133" transform="rotate(-89.714 291.764 -122.87)" fill="rgba(0,0,0,0.35)" d="M0 0h3.471v44.731H0z"/><path id="Pfad_27535" data-name="Pfad 27535" d="M65.45 196.062v67.23a22.014 22.014 0 0022.014 22.014h241.028a22.014 22.014 0 0022.03-22V206.49l30-31.523L87.543 174a22.029 22.029 0 00-22.093 21.966z" transform="translate(-65.45 -61.252)" fill="rgba(0,0,0,0.1)"/><path id="Pfad_27536" data-name="Pfad 27536" d="M303.613 202.568l-218.713-1 .032-6.72 218.7 1z" transform="translate(-54.074 -47.057)" fill="rgba(0,0,0,0.15)"/><path id="Pfad_27537" data-name="Pfad 27537" d="M303.613 216.534L84.9 215.52l.032-6.72 218.7 1.014z" transform="translate(-54.074 -38.898)" fill="rgba(0,0,0,0.15)"/><path id="Rechteck_134" data-name="Rechteck 134" transform="rotate(-89.714 171.86 28.025)" fill="rgba(0,0,0,0.15)" d="M0 0h6.72v86.534H0z"/></g><path id="Pfad_27274" data-name="Pfad 27274" d="M310.485 240.917c0-.108.5-.487 1.3-.041a1.532 1.532 0 01.643 1.5 1.729 1.729 0 01-3.182.739 1.538 1.538 0 01-.049-1.621c.488-.807 1.174-.742 1.159-.593s-.331.372-.445.889a.887.887 0 00.173.721.785.785 0 001.35-.759.818.818 0 00-.143-.282c-.348-.29-.774-.277-.806-.553z" transform="translate(144.482 82.856)" fill="#fff"/><path id="Pfad_27276" data-name="Pfad 27276" d="M315.013 246.441a4.955 4.955 0 104.821-5.084h-.043a4.934 4.934 0 00-4.778 5.084z" transform="translate(148.002 83.26)"/><g id="Gruppe_1288" data-name="Gruppe 1288" transform="translate(232.507 99)"><g id="Gruppe_1231" data-name="Gruppe 1231" transform="translate(213.95 298.309)"><path id="Pfad_27234" data-name="Pfad 27234" d="M362.9 309.464s-45.828 33.43-56.783 25.854 39.75-47.519 39.969-48.1z" transform="translate(-304.564 -287.222)" fill="#f8b02f"/><path id="Pfad_27235" data-name="Pfad 27235" d="M362.9 309.464s-45.828 33.43-56.783 25.854 39.75-47.519 39.969-48.1z" transform="translate(-304.564 -287.222)" opacity=".3" style="isolation:isolate"/></g><g id="freepik--Device--inject-2"><path id="Pfad_27538" data-name="Pfad 27538" d="M370.3 585.129l-164.954-.777A35.913 35.913 0 01169.57 548.3v-.016l1.759-413.542A35.946 35.946 0 01207.417 99l164.954.761a35.945 35.945 0 0135.771 36.088L406.4 549.343a35.96 35.96 0 01-36.1 35.786z" transform="translate(-169.57 -99)" fill="#263238"/><path id="Pfad_27539" data-name="Pfad 27539" d="M368.092 108.729l-31.983-.143a7.924 7.924 0 00-7.8 8.048v5.836a7.925 7.925 0 01-7.763 8.083h-.035l-62.381-.285a7.924 7.924 0 01-7.736-8.108v-5.854a7.924 7.924 0 00-7.68-8.161h-11.3L203.471 108a25.168 25.168 0 00-25.279 25.057l-1.712 403.636a25.184 25.184 0 0025.057 25.279l164.621.761a25.167 25.167 0 0025.279-25.057l1.712-403.636a25.184 25.184 0 00-25.057-25.31z" transform="translate(-165.528 -93.736)" fill="#fff"/><path id="Pfad_27540" data-name="Pfad 27540" d="M242.84 364.035a3.455 3.455 0 11-3.455-3.455 3.47 3.47 0 013.455 3.455z" transform="translate(-130.757 53.992)" fill="#455a64"/><path id="Pfad_27541" data-name="Pfad 27541" d="M251.12 364.035a3.455 3.455 0 11-3.455-3.455 3.47 3.47 0 013.455 3.455z" transform="translate(-125.915 53.992)" fill="#455a64"/><path id="Pfad_27542" data-name="Pfad 27542" d="M259.4 364.035a3.455 3.455 0 11-3.455-3.455 3.47 3.47 0 013.455 3.455z" transform="translate(-121.072 53.992)" fill="#455a64"/><path id="Pfad_27543" data-name="Pfad 27543" d="M196.98 183.988v-.872a11.441 11.441 0 012.33-6.34 11.8 11.8 0 014.453-3.677 14.466 14.466 0 017.18-1.189h29.986l126.79.254h.935l-.65.681-16.245 17.085.111-.269v28.29a21.216 21.216 0 01-.412 5.626 12.134 12.134 0 01-2.678 4.992 12.273 12.273 0 01-4.564 3.265 13.592 13.592 0 01-5.484.935H287l-69.275-.143h-7.29a13.734 13.734 0 01-6.8-1.22 12.17 12.17 0 01-6.847-10.127v-20.126c0-5.531 0-9.779.079-12.679v12.679c0 5.468 0 12.283.111 20.1a11.681 11.681 0 006.625 9.684 13.123 13.123 0 006.561 1.141h7.56l69.354-.078h51.7a12.681 12.681 0 005.167-.872 11.651 11.651 0 004.279-3.043 11.224 11.224 0 002.472-4.66 20.342 20.342 0 00.4-5.42V189.52l.111-.111 16.261-17.085.3.682-126.79-.539-21.3-.111h-8.7a14.259 14.259 0 00-7.037 1.094 11.624 11.624 0 00-4.406 3.55 12.115 12.115 0 00-1.934 3.709 18.008 18.008 0 00-.621 3.279z" transform="translate(-153.649 -56.39)" fill="#455a64"/><path id="Pfad_27544" data-name="Pfad 27544" d="M325.951 187.46l-118.5-.555.016-3.645 118.485.555z" transform="translate(-147.415 -49.718)" fill="#455a64"/><path id="Pfad_27545" data-name="Pfad 27545" d="M325.951 195.02l-118.5-.555.016-3.645 118.485.555z" transform="translate(-147.415 -45.296)" fill="#455a64"/><path id="Rechteck_135" data-name="Rechteck 135" transform="rotate(-89.714 146.795 14.44)" fill="#455a64" d="M0 0h3.645v46.881H0z"/><path id="Pfad_27546" data-name="Pfad 27546" d="M361.551 234.548V271a11.934 11.934 0 01-11.918 11.934H219.039A11.934 11.934 0 01207.1 271v-30.794l-16.24-17.085 158.71-.491a11.919 11.919 0 0111.982 11.855z" transform="translate(-157.118 -26.691)" fill="#f8b02f"/><path id="Pfad_27547" data-name="Pfad 27547" d="M213.266 238.1l118.5-.555-.016-3.645-118.5.555z" transform="translate(-144.022 -20.1)" fill="#fff"/><path id="Pfad_27548" data-name="Pfad 27548" d="M213.266 245.654l118.5-.555-.016-3.629-118.5.539z" transform="translate(-144.022 -15.672)" fill="#fff"/><path id="Rechteck_136" data-name="Rechteck 136" transform="rotate(-.286 47719.216 -13744.935)" fill="#fff" d="M0 0h46.881v3.645H0z"/><path id="Rechteck_137" data-name="Rechteck 137" transform="rotate(-89.74 93.897 -2.519)" fill="#f8b02f" d="M0 0h7.29v58.751H0z"/><path id="Rechteck_138" data-name="Rechteck 138" transform="rotate(-89.74 93.897 -2.519)" fill="#fff" opacity=".3" style="isolation:isolate" d="M0 0h7.29v58.751H0z"/><path id="Pfad_27549" data-name="Pfad 27549" d="M198.714 284.937a4.289 4.289 0 010-.856 6.1 6.1 0 01.808-2.425 6.433 6.433 0 013.17-2.71 15.867 15.867 0 015.642-.491h36.341l122.368.254h.935l-.7.65-16.007 17.18.111-.285v14.026a6.7 6.7 0 01-4.5 6.007 7.262 7.262 0 01-2.583.38h-54.011l-62.476-.127h-21.38a12.309 12.309 0 01-2.742-.159 6.561 6.561 0 01-5.072-5.293 15.078 15.078 0 01-.1-2.361v-8.273c0-4.961 0-8.812.079-11.474 0 2.663 0 6.514.079 11.474v8.273a13.735 13.735 0 00.111 2.282 6.1 6.1 0 004.755 4.929 13.089 13.089 0 002.647.127h21.618l62.539-.1h54a6.469 6.469 0 002.3-.333 5.961 5.961 0 003.392-3.027 5.837 5.837 0 00.571-2.251v-14.132l.111-.111 16.039-17.148.285.681-122.353-.523-36.341-.238a15.22 15.22 0 00-5.547.412 6.338 6.338 0 00-3.93 4.913 7.2 7.2 0 01-.159.729z" transform="translate(-152.642 5.92)" fill="#455a64"/><path id="Pfad_27550" data-name="Pfad 27550" d="M329.3 290.124l-118.5-.539.016-3.645 118.5.555z" transform="translate(-145.455 10.337)" fill="#455a64"/><path id="Rechteck_139" data-name="Rechteck 139" transform="rotate(-89.714 224.639 87.753)" fill="#455a64" d="M0 0h3.645v48.085H0z"/><path id="Pfad_27551" data-name="Pfad 27551" d="M358.026 325.88v24.962a6.34 6.34 0 01-6.34 6.34H212.123a6.34 6.34 0 01-6.34-6.34V337.2l-16.023-17.153 161.927-.507a6.34 6.34 0 016.339 6.339z" transform="translate(-157.761 29.989)" fill="#f8b02f"/><path id="Pfad_27552" data-name="Pfad 27552" d="M209.016 331.144l118.5-.539-.016-3.645-118.5.555z" transform="translate(-146.508 34.329)" fill="#fff"/><path id="Pfad_27553" data-name="Pfad 27553" d="M209.016 338.544l118.5-.555-.016-3.629-118.5.54z" transform="translate(-146.508 38.657)" fill="#fff"/><g id="Gruppe_1286" data-name="Gruppe 1286" transform="translate(103.659 38.846)"><g id="Gruppe_1284" data-name="Gruppe 1284" transform="translate(9.195 10.299)"><path id="Pfad_27554" data-name="Pfad 27554" d="M254.659 134.674h.266a2.809 2.809 0 012.8 2.82v.759a2.806 2.806 0 01-2.818 2.8h-.266l.024-6.376z" transform="translate(-232.671 -127.28)" fill="#263238"/><path id="Pfad_27555" data-name="Pfad 27555" d="M254.634 141.053l.024-6.382h.265a2.8 2.8 0 011.981.824l.006.006a2.8 2.8 0 01.819 1.992v.761a2.818 2.818 0 01-2.824 2.8zm.032-6.378l-.022 6.368h.26a2.8 2.8 0 002.813-2.793v-.761a2.781 2.781 0 00-.815-1.984l-.006-.006a2.78 2.78 0 00-1.967-.827z" transform="translate(-232.671 -127.281)" fill="#263238"/><path id="Pfad_27556" data-name="Pfad 27556" d="M243.744 140.936l-.265-.011a2.809 2.809 0 01-2.694-2.919l.03-.758a2.82 2.82 0 012.93-2.7l.255.011-.257 6.381z" transform="translate(-240.773 -127.357)" fill="#263238"/><path id="Pfad_27557" data-name="Pfad 27557" d="M241.606 140.108l-.082-.082a2.79 2.79 0 01-.745-2.019l.032-.758a2.816 2.816 0 012.924-2.7l.271.013-.255 6.374-.271-.014a2.782 2.782 0 01-1.874-.814zm2.135-5.552a2.8 2.8 0 00-2.926 2.678v.019l-.03.758a2.8 2.8 0 00.742 2.014l.082.082a2.787 2.787 0 001.867.816l.268.017.256-6.36z" transform="translate(-240.776 -127.354)" fill="#263238"/><path id="Rechteck_140" data-name="Rechteck 140" transform="rotate(-6.09 17.012 -70.67)" fill="#455a64" d="M0 0h.503v4.166H0z"/><path id="Rechteck_141" data-name="Rechteck 141" transform="rotate(-77.389 12.074 -7.492)" fill="#455a64" d="M0 0h4.166v.503H0z"/><path id="Pfad_27558" data-name="Pfad 27558" d="M247.1 130.924a1.027 1.027 0 11-1.132-.91 1.03 1.03 0 011.132.91z" transform="translate(-238.277 -130.008)" fill="#263238"/><rect id="Rechteck_142" data-name="Rechteck 142" width="15.068" height="19.968" rx="2.096" transform="rotate(-89.8 11.475 8.917)" fill="#f8b02f"/><rect id="Rechteck_143" data-name="Rechteck 143" width="6.155" height="17.14" rx="1.773" transform="rotate(-89.8 8.848 4.87)" fill="#fff"/><path id="Pfad_27559" data-name="Pfad 27559" d="M257.608 142.118a.928.928 0 00.117-.011 2.8 2.8 0 00.345-.032 3.375 3.375 0 001.252-.42 3.533 3.533 0 001.789-2.742l.016-.352v-.361a5.43 5.43 0 00-.033-.753 3.422 3.422 0 00-1.843-2.65 3.51 3.51 0 00-.859-.314 4.282 4.282 0 00-.943-.087l-2-.008-8.92-.029a3.51 3.51 0 00-2.152.727 3.46 3.46 0 00-1.334 2.366c-.014.182-.027.36-.025.545a6.261 6.261 0 00.046 1.076 3.493 3.493 0 002.582 2.829 3.693 3.693 0 00.474.1 4.682 4.682 0 00.471.024l.932.006 3.4.022 4.912.033 1.323.022h.347a.679.679 0 01.117.008h-11.04c-.158 0-.32-.013-.48-.024a3.818 3.818 0 01-.48-.089 3.594 3.594 0 01-2.658-2.9 6.459 6.459 0 01-.046-1.092c0-.182.011-.371.017-.552a4.068 4.068 0 01.111-.553 3.519 3.519 0 01.469-1.04 3.764 3.764 0 01.792-.848 3.6 3.6 0 012.209-.753l8.921.036 2 .01a4.373 4.373 0 01.964.089 3.567 3.567 0 012.766 3.032 5.341 5.341 0 01.032.762v.365l-.008.353a3.543 3.543 0 01-.385 1.271 3.637 3.637 0 01-.683.927 3.9 3.9 0 01-.778.577 3.393 3.393 0 01-1.265.41 2.533 2.533 0 01-.347.019z" transform="translate(-239.528 -127.515)" fill="#263238"/><circle id="Ellipse_177" data-name="Ellipse 177" cx="1.027" cy="1.027" r="1.027" transform="translate(16.924 .325)" fill="#263238"/><path id="Pfad_27560" data-name="Pfad 27560" d="M244.618 145.013a1.1 1.1 0 01-.022-.228 26.619 26.619 0 01-.021-.626c-.013-.525-.022-1.255-.025-2.059s0-1.531.01-2.06a4.515 4.515 0 01.052-.853 2.226 2.226 0 01.011.23l.011.623c.013.558.013 1.27.019 2.059s0 1.534 0 2.06l-.013.626a.918.918 0 01-.022.228z" transform="translate(-238.57 -124.64)" fill="#263238"/><path id="Pfad_27561" data-name="Pfad 27561" d="M252.428 144.983a.921.921 0 01-.022-.228c-.006-.147-.014-.36-.021-.623-.013-.528-.024-1.255-.027-2.06s0-1.533.013-2.059a4.52 4.52 0 01.051-.853 1.571 1.571 0 01.011.228l.011.624.019 2.059v2.059l-.013.626a.905.905 0 01-.022.227z" transform="translate(-234.003 -124.656)" fill="#263238"/><path id="Pfad_27562" data-name="Pfad 27562" d="M9.447 17.361l5.611-.045h0z" fill="#263238" stroke="#263238" stroke-linecap="round" stroke-linejoin="round" stroke-width=".657"/><path id="Pfad_27563" data-name="Pfad 27563" d="M244.275 140.06a.22.22 0 11.014-.312l.008.01a.218.218 0 01-.022.3z" transform="translate(-238.948 -124.353)" fill="#263238"/><path id="Pfad_27564" data-name="Pfad 27564" d="M244.228 141.6a.222.222 0 01-.311-.04.225.225 0 01.011-.285.222.222 0 01.3.325z" transform="translate(-238.966 -123.448)" fill="#263238"/><path id="Pfad_27565" data-name="Pfad 27565" d="M253.164 139.989a.23.23 0 11-.006-.347l.027.027a.218.218 0 01-.008.307z" transform="translate(-233.751 -124.408)" fill="#263238"/><path id="Pfad_27566" data-name="Pfad 27566" d="M253.122 141.525a.22.22 0 01-.3-.323.22.22 0 11.3.323z" transform="translate(-233.771 -123.496)" fill="#263238"/><path id="Pfad_27567" data-name="Pfad 27567" d="M241.19 138.443a5.424 5.424 0 00-.036-.621c-.022-.19-.067-.417-.082-.678a2.086 2.086 0 01.114-.837 2.267 2.267 0 01.953-1.178 1.779 1.779 0 01.423-.189.612.612 0 01.166-.033 4.411 4.411 0 00-.55.285 2.314 2.314 0 00-.892 1.149 3.137 3.137 0 00-.054 1.475 1.4 1.4 0 01-.042.627z" transform="translate(-240.607 -127.144)" fill="#fff"/><path id="Pfad_27568" data-name="Pfad 27568" d="M257.774 133.89c0 .029-2.975.01-6.641-.043s-6.642-.119-6.642-.147 2.976-.016 6.642.043 6.641.118 6.641.147z" transform="translate(-238.604 -127.858)" fill="#fff"/><path id="Pfad_27569" data-name="Pfad 27569" d="M245.321 131.33c-.008.01-.073-.075-.1-.233a.825.825 0 01.626-.968.4.4 0 01.26 0c0 .01-.1.017-.238.068a.9.9 0 00-.444.342.885.885 0 00-.125.552c0 .144.044.239.021.239z" transform="translate(-238.189 -129.949)" fill="#fff"/><path id="Pfad_27570" data-name="Pfad 27570" d="M251.706 131.634c-.008.008-.081-.081-.109-.255a.838.838 0 01.7-.959l.048-.006a.407.407 0 01.276.04c0 .011-.106 0-.257.027a.843.843 0 00-.689.892c.004.156.047.253.031.261z" transform="translate(-234.454 -129.774)" fill="#fff"/><path id="Pfad_27571" data-name="Pfad 27571" d="M256.458 135.558a4.435 4.435 0 00-.718-.45 4.561 4.561 0 00-.821-.214 1.315 1.315 0 01.861.114 1.348 1.348 0 01.678.55z" transform="translate(-232.505 -127.167)" fill="#fff"/><path id="Pfad_27572" data-name="Pfad 27572" d="M242.587 142.72a20.389 20.389 0 01-.017-2.111c.022-1.162.06-2.106.089-2.1a20.66 20.66 0 01.016 2.108c-.02 1.16-.06 2.103-.088 2.103z" transform="translate(-239.739 -125.04)" fill="#fff"/><g id="Gruppe_1283" data-name="Gruppe 1283" transform="translate(7.768 9.828)" fill="#263238"><path id="Pfad_27573" data-name="Pfad 27573" d="M248.6 137.447l-1.121-1.12a.394.394 0 00-.559 0l-1.122 1.12a.4.4 0 10.561.559l.84-.84.842.84a.39.39 0 00.279.117.4.4 0 00.281-.677z" transform="translate(-245.678 -136.21)"/><path id="Pfad_27574" data-name="Pfad 27574" d="M252.344 137.447l-1.122-1.12a.394.394 0 00-.559 0l-1.122 1.12a.4.4 0 10.561.559l.84-.84.842.84a.4.4 0 00.561-.559z" transform="translate(-243.487 -136.21)"/></g></g><g id="Gruppe_1285" data-name="Gruppe 1285"><path id="Pfad_27575" data-name="Pfad 27575" d="M256.7 166.958a21.724 21.724 0 1121.724-21.724 21.724 21.724 0 01-21.724 21.724zm0-39.882a18.158 18.158 0 1018.158 18.158 18.158 18.158 0 00-18.158-18.158z" transform="translate(-234.975 -123.51)" fill="#263238"/></g></g></g><g id="Gruppe_1287" data-name="Gruppe 1287" transform="translate(216.524 216.447)"><path id="Pfad_27253" data-name="Pfad 27253" d="M411.852 301.11c3.518 7.325-9.031 93.977-50.117 92.712-40.67-1.219-40.555-96.807-39.88-97.31 37.036-28.759 84.614-6.579 89.997 4.598z" transform="translate(-297.113 -208.2)" fill="#f8b02f"/><path id="Pfad_27254" data-name="Pfad 27254" d="M413.1 294.64l-2.572 1q-1.7.685-4.16 1.447c-1.642.51-3.558 1.109-5.591 1.656s-4.333 1.052-6.824 1.6-5.178.908-8.019 1.33a119.227 119.227 0 01-37.034-.987c-2.88-.564-5.536-1.231-7.926-1.753s-4.566-1.36-6.717-1.9a53.424 53.424 0 01-5.5-1.864c-1.609-.574-2.962-1.173-4.065-1.666l-2.523-1.162a5.632 5.632 0 01-.867-.452 4.243 4.243 0 01.941.285l2.577 1c1.122.442 2.517.927 4.121 1.517s3.5 1.193 5.5 1.864 4.281 1.247 6.718 1.9 5.1 1.122 7.893 1.666a124.882 124.882 0 0036.8.979c2.858-.4 5.531-.827 7.966-1.244s4.637-1.024 6.821-1.483 3.964-1.081 5.6-1.523 3.045-.9 4.175-1.311l2.639-.851a3.84 3.84 0 01.957-.239 6.623 6.623 0 01-.91.191z" transform="translate(-297.347 -202.626)" fill="#fff"/><g id="Gruppe_1233" data-name="Gruppe 1233" transform="translate(36.347 72.926)" opacity=".3"><path id="Pfad_27255" data-name="Pfad 27255" d="M364.606 281.632c-25.028-.8-35.484 8.682-35.484 8.682 8.122 10.769 20.748 15.616 34.221 15.945s26.455-2.626 35.091-12.982a58.9 58.9 0 00-33.828-11.645z" transform="translate(-329.122 -281.584)"/></g><path id="Pfad_27256" data-name="Pfad 27256" d="M350.368 380.936a19.868 19.868 0 004.782-7.9 41.919 41.919 0 001.558-13.733c-.076-5.271-.168-11.051-.268-17.136-.17-12.156-.271-23.166-.3-31.127 0-3.9-.073-7.083 0-9.452l.079-2.556a5.127 5.127 0 01.029-.9 2.886 2.886 0 01.108.88c.032.694.159 1.547.125 2.561.065 2.357.152 5.56.269 9.444.2 7.967.383 18.968.548 31.135.084 6.084.144 11.864.2 17.152a41.6 41.6 0 01-1.785 13.936 19.062 19.062 0 01-5.141 7.94 13.421 13.421 0 01-2.078 1.526 3.416 3.416 0 01-.826.377 28.184 28.184 0 002.7-2.147z" transform="translate(-281.924 -198.975)" fill="#fff"/><path id="Pfad_27257" data-name="Pfad 27257" d="M351.177 338.392a1.131 1.131 0 00-.49.287 1.153 1.153 0 00-.013 1.629 1.051 1.051 0 001.109.3 1.221 1.221 0 00.6-.827 1.694 1.694 0 00-.168-1.143c.016-.032.185-.027.384.149a1.37 1.37 0 01.391 1.044 1.654 1.654 0 01-2.948 1.079 1.843 1.843 0 01-.391-2.079 1.956 1.956 0 011.317-1.043 1.35 1.35 0 011.4.365c-.057.137-.61-.064-1.191.239z" transform="translate(-280.863 -175.82)" fill="#fff"/><path id="Pfad_27258" data-name="Pfad 27258" d="M349.912 329.779a.9.9 0 00-.193.807.81.81 0 00.78.464.956.956 0 00.353-.052 1.048 1.048 0 00.669-1.322c-.119-.591-.415-.9-.377-1s.609.035.957.808a1.867 1.867 0 01-.044 1.49 1.692 1.692 0 01-1.621.965 1.555 1.555 0 01-1.558-1.13 1.508 1.508 0 01.536-1.458 1.13 1.13 0 01.975-.276c.3.06.3.23.3.23-.058.11-.495.01-.777.474z" transform="translate(-281.235 -181.134)" fill="#fff"/><path id="Pfad_27259" data-name="Pfad 27259" d="M369.571 323.313c-16 4.054-43.752 5.939-43.752 5.939l1.277 4.222c18.713 4 42.424-8.466 42.424-8.466z" transform="translate(-294.707 -184.251)" opacity=".2" style="isolation:isolate"/><path id="Pfad_27260" data-name="Pfad 27260" d="M349.605 335.834s-33.557 6.572-42.659-7.592 66.7-17.556 66.7-17.556c-2.163 10.314-24.041 25.148-24.041 25.148z" transform="translate(-306.188 -191.636)" fill="#d39e40"/><path id="Pfad_27261" data-name="Pfad 27261" d="M350.207 334.976s-32.961 6.455-41.9-7.455 65.512-17.242 65.512-17.242c-2.119 10.131-23.612 24.697-23.612 24.697z" transform="translate(-305.385 -191.874)" fill="#f8b02f"/><path id="Pfad_27262" data-name="Pfad 27262" d="M326.915 328.942l4.824-.461c3.975-.4 9.7-.9 15.874-1.729s11.742-1.74 15.778-2.43l4.786-.818a7.42 7.42 0 011.7-.2 6.418 6.418 0 01-1.71.542 98.393 98.393 0 01-4.725 1.075c-4.01.857-9.576 1.891-15.787 2.7s-11.85 1.279-15.958 1.49c-2.033.106-3.7.209-4.848.173a6.312 6.312 0 01-1.693-.052 7.963 7.963 0 011.759-.29z" transform="translate(-295.094 -184.258)" fill="#fff"/><path id="Pfad_27263" data-name="Pfad 27263" d="M320.013 316.231c1.382-.349 3.4-.811 5.9-1.325 5.016-1.054 11.985-2.325 19.725-3.442s14.827-1.78 19.916-2.032c2.561-.122 4.631-.2 6.07-.152a12.243 12.243 0 012.235.07 10.226 10.226 0 01-2.228.236c-1.43.076-3.482.233-6.03.441-5.1.4-12.047 1.176-19.839 2.271s-14.608 2.293-19.716 3.186l-5.978 1.052a9.8 9.8 0 01-2.209.288 12.178 12.178 0 012.154-.593z" transform="translate(-299.361 -192.472)" fill="#fff"/><g id="Gruppe_1234" data-name="Gruppe 1234" transform="translate(27.198 95.629)" opacity=".4"><path id="Pfad_27264" data-name="Pfad 27264" d="M336.033 299.153c1.916.515 4.052.989 6.306 1.533s4.731.941 7.308 1.409a127.783 127.783 0 0033.848 1.027c2.6-.309 5.048-.639 7.365-.959s4.447-.745 6.408-1.143c7.687-1.593 12.574-2.9 12.8-2.4s-4.192 3.007-12.024 5.425c-1.951.6-4.133 1.075-6.474 1.713a76.164 76.164 0 01-7.57 1.464 112.4 112.4 0 01-17.651 1.049 110.364 110.364 0 01-17.521-2.067c-2.64-.659-5.146-1.3-7.463-1.926s-4.428-1.388-6.336-2.108c-7.638-2.9-11.907-5.669-11.671-6.137.342-.614 5.05 1.122 12.675 3.12z" transform="translate(-323.349 -295.909)" fill="#fff"/></g><circle id="Ellipse_201" data-name="Ellipse 201" cx="44.853" cy="44.853" r="44.853" transform="translate(26.102 .008)" fill="#f8b02f"/><path id="Pfad_27265" data-name="Pfad 27265" d="M324.973 280.73c13.9 3.514 30.029 4.041 47.651 3.349a10.718 10.718 0 0010.31-10.83c0-.117-.01-.233-.01-.35v-.006a10.679 10.679 0 00-11.183-10.153 206.473 206.473 0 01-48.389-3.541c-2.566 14.085 1.626 21.462 1.621 21.531z" transform="translate(-296.636 -221.75)"/><path id="Pfad_27266" data-name="Pfad 27266" d="M347.855 267.694v-.055a1.257 1.257 0 111.382 1.25 1.306 1.306 0 01-1.382-1.2z" transform="translate(-281.819 -217.548)" fill="#fff"/><path id="Pfad_27267" data-name="Pfad 27267" d="M327.654 266.506v-.055a1.256 1.256 0 111.388 1.25 1.306 1.306 0 01-1.388-1.195z" transform="translate(-293.634 -218.243)" fill="#fff"/><path id="Pfad_27268" data-name="Pfad 27268" d="M335.1 269.162a8.286 8.286 0 004.991 2.965 7.7 7.7 0 005.56-1.8c1.217-.983 1.835-1.791 1.918-1.737s-.319 1.022-1.507 2.208A7.58 7.58 0 01340 273a8.228 8.228 0 01-5.468-3.455 4.726 4.726 0 01-1.092-2.439c.118-.06.56.851 1.66 2.056z" transform="translate(-290.252 -217.125)" fill="#fff"/><path id="Pfad_27269" data-name="Pfad 27269" d="M352.209 238.464a21.65 21.65 0 00-5.682 5.229 40.51 40.51 0 00-4.612 8.329 50.667 50.667 0 00-3.9 16.817c-.239 4.466.131 7.251-.021 7.251a7.179 7.179 0 01-.363-1.926 38.548 38.548 0 01-.225-5.343 46.583 46.583 0 013.631-17.234 38.868 38.868 0 014.783-8.493 21.924 21.924 0 016.007-5.252 17.7 17.7 0 014.975-2.011 12.123 12.123 0 011.449-.26l.5.016a27.748 27.748 0 00-6.542 2.877z" transform="translate(-287.94 -235.57)" fill="#fff"/><path id="Pfad_27270" data-name="Pfad 27270" d="M382.939 271.45a47.771 47.771 0 00-10.654-19.369 40.746 40.746 0 00-18.485-11.917 43.7 43.7 0 00-9.121-1.382c0-.033.222-.111.647-.1a15 15 0 011.848-.062 28.439 28.439 0 016.747.935 39.747 39.747 0 0118.96 11.937 45.867 45.867 0 0110.573 19.7 36.893 36.893 0 011.03 6.809 18.308 18.308 0 01.043 1.865l-.021.642a71.905 71.905 0 00-1.567-9.058z" transform="translate(-283.677 -233.788)" fill="#fff"/><path id="Pfad_27271" data-name="Pfad 27271" d="M343.717 244.889a.613.613 0 00-.135.555.6.6 0 001.075.252.632.632 0 00.138-.572c-.09-.409-.357-.586-.353-.705s.548-.17.935.471a1.255 1.255 0 01-.04 1.285 1.436 1.436 0 01-1.476.615 1.459 1.459 0 01-1.063-1.2 1.212 1.212 0 01.526-1.17c.621-.371 1.033-.071 1.033.032-.02.116-.377.141-.64.437z" transform="translate(-284.783 -230.5)" fill="#fff"/><path id="Pfad_27272" data-name="Pfad 27272" d="M363.3 264.994a.633.633 0 00-.136.556.7.7 0 00.46.487.72.72 0 00.617-.236.6.6 0 00.136-.552c-.089-.426-.355-.624-.352-.724s.548-.166.935.469a1.258 1.258 0 01-.038 1.287 1.4 1.4 0 01-1.476.615 1.439 1.439 0 01-1.065-1.2 1.23 1.23 0 01.528-1.17c.62-.353 1.032-.07 1.032.033-.024.115-.386.157-.641.435z" transform="translate(-273.33 -218.736)" fill="#fff"/><path id="Pfad_27273" data-name="Pfad 27273" d="M341.553 251.83a.643.643 0 00-.119.571.661.661 0 00.442.472.7.7 0 00.617-.236.561.561 0 00.136-.553 2.532 2.532 0 00-.334-.721c-.014-.1.531-.17.916.468a1.258 1.258 0 01-.038 1.287 1.371 1.371 0 01-2.523-.586 1.206 1.206 0 01.51-1.17c.637-.353 1.032-.07 1.032.033-.022.199-.368.189-.639.435z" transform="translate(-286.04 -226.435)" fill="#fff"/><path id="Pfad_27275" data-name="Pfad 27275" d="M375.272 267.191a118.934 118.934 0 0114.82-.458 126.583 126.583 0 01-14.765 1.323 118.008 118.008 0 01-14.819.458 128.323 128.323 0 0114.764-1.323z" transform="translate(-274.418 -217.378)" fill="#fff"/><g id="Gruppe_1235" data-name="Gruppe 1235" transform="translate(76.581 2.088)" opacity=".4"><path id="Pfad_27277" data-name="Pfad 27277" d="M376.022 307.987a25.4 25.4 0 005.33-7.783 46.242 46.242 0 003.808-13.655 46.942 46.942 0 00-1.16-17.214 44.139 44.139 0 00-7.587-15.48 49.013 49.013 0 00-10.249-9.886c-6.764-4.761-11.867-6.222-11.644-6.912.06-.268 1.431-.26 3.785.32a36.536 36.536 0 019.5 3.986 44.3 44.3 0 0120.4 26.8 46.854 46.854 0 011 18.9 43.075 43.075 0 01-5.053 14.5 21.623 21.623 0 01-7.116 7.691c-2.152 1.238-3.566 1.433-3.659 1.19-.144-.308.997-.983 2.645-2.457z" transform="translate(-354.509 -236.888)" fill="#fff"/></g><path id="Pfad_27278" data-name="Pfad 27278" d="M364.767 360.635c24.074 0 43.609 4.471 43.609 10s-19.518 9.978-43.609 9.978-43.624-4.45-43.624-9.978 19.551-10 43.624-10z" transform="translate(-297.442 -162.422)" opacity=".15"/></g></g><g id="freepik--character-1--inject-2" transform="translate(61.962 336.843)"><path id="Pfad_27576" data-name="Pfad 27576" d="M138.574 326.959c.46-2.678-.555-12.473-.555-12.473s-10.27-1.094-10.888-11.268 0-33.663 0-33.663l18.7-9.145 20.6 15.579-3.17 50.922z" transform="translate(-24.007 -242.438)" fill="#b78876"/><path id="Pfad_27577" data-name="Pfad 27577" d="M128.82 277.4a1.3 1.3 0 101.3-1.3 1.3 1.3 0 00-1.3 1.3z" transform="translate(-22.859 -233.261)" fill="#263238"/><path id="Pfad_27578" data-name="Pfad 27578" d="M127.63 276.917c.158.159 1.125-.65 2.52-.729s2.457.6 2.615.412-.111-.4-.571-.713a3.431 3.431 0 00-2.092-.555 3.515 3.515 0 00-2.013.808c-.411.365-.554.698-.459.777z" transform="translate(-23.571 -233.714)" fill="#263238"/><circle id="Ellipse_178" data-name="Ellipse 178" cx="1.3" cy="1.3" r="1.3" transform="translate(121.128 42.601)" fill="#263238"/><path id="Pfad_27579" data-name="Pfad 27579" d="M137.188 276.751c.174.174 1.125-.65 2.536-.713s2.457.6 2.6.412-.1-.4-.555-.713a3.438 3.438 0 00-4.1.254c-.433.364-.56.697-.481.76z" transform="translate(-17.978 -233.801)" fill="#263238"/><path id="Pfad_27580" data-name="Pfad 27580" d="M135.463 288.075a8.852 8.852 0 00-2.3-.285c-.349 0-.7-.079-.777-.333a2.028 2.028 0 01.206-1.141l.951-2.9a50.838 50.838 0 002.14-7.576 56.038 56.038 0 00-2.678 7.4c-.333 1.014-.634 2-.919 2.916a2.19 2.19 0 00-.143 1.474.874.874 0 00.6.507 2.019 2.019 0 00.6 0 9.581 9.581 0 002.32-.062z" transform="translate(-21.071 -233.413)" fill="#263238"/><path id="Pfad_27581" data-name="Pfad 27581" d="M139.579 284.4a15.482 15.482 0 01-6.8 2.33 3.9 3.9 0 004.66 1.315c2.996-1.252 2.14-3.645 2.14-3.645z" transform="translate(-20.543 -228.406)" fill="#fff"/><path id="Pfad_27582" data-name="Pfad 27582" d="M133.9 296.214a25.365 25.365 0 0013.487-4.564s-3.059 7.481-13.265 7.069z" transform="translate(-19.888 -224.166)" fill="#a36957"/><path id="Pfad_27583" data-name="Pfad 27583" d="M166.124 275.211s4.152 23.472-15.674 27.7l.586-28.274z" transform="translate(-10.208 -234.115)" fill="#263238"/><path id="Pfad_27584" data-name="Pfad 27584" d="M180.441 284.967a35.7 35.7 0 00-6.783-13.757c2.853 1.189 4.755 2.377 5.151 2s-.333-1.094-1.585-2.155a16.933 16.933 0 00-5.484-3l-.935-.254a10.908 10.908 0 003.518-2.266 8.209 8.209 0 001.981-9.113 7.545 7.545 0 00-7.433-3.883 9.507 9.507 0 00-7.037 4.9 11.247 11.247 0 00-.84 1.965 27.817 27.817 0 01.349-3.36c.634-3.915 2.092-6.847 1.854-6.973a13.817 13.817 0 00-2.71 6.831 8.487 8.487 0 01-.143 1.109 22.82 22.82 0 00-1.141-2.964c-.967-2.044-1.886-3.17-2.155-3-.555.269 1.252 4.564 2 10.365a20.629 20.629 0 00-5.515-1.03c-3.455 0-9.192-1.585-17.307 4.929a24.814 24.814 0 00-6.989 6.7 25.085 25.085 0 00-4.358 13.281 21.942 21.942 0 00.269 4.263 4.777 4.777 0 00.4 1.506c.158 0-.3-2.2 0-5.737a25.426 25.426 0 011.728-7.639 19.329 19.329 0 00.761 12.79l18.147-2.837c-1.173-3.978-.317-10.286.238-13.376 3.17 14.819 15.928 21.935 15.928 21.935l19.1-3c-.28-1.716-.597-6.676-1.009-8.23z" transform="translate(-25.174 -249.07)" fill="#263238"/><path id="Pfad_27585" data-name="Pfad 27585" d="M187.65 419.783c.586.285 47.4 9.509 45.676 3.17s-45.264-16.293-45.264-16.293z" transform="translate(11.549 -156.899)" fill="#f8b02f"/><path id="Pfad_27586" data-name="Pfad 27586" d="M201.186 412.33c.222 0 .555 1.078.539 2.488s-.349 2.52-.571 2.488-.269-1.141-.254-2.488.064-2.472.286-2.488z" transform="translate(19.298 -153.583)" fill="#263238"/><path id="Pfad_27587" data-name="Pfad 27587" d="M199.724 411.79c.206 0 .618 1.252.46 2.9s-.745 2.853-.951 2.773 0-1.315.127-2.853.126-2.788.364-2.82z" transform="translate(18.272 -153.899)" fill="#263238"/><path id="Pfad_27588" data-name="Pfad 27588" d="M197.7 411.63c.222 0 .539 1.236.571 2.821s-.238 2.853-.46 2.837-.333-1.268-.365-2.821.029-2.821.254-2.837z" transform="translate(17.272 -153.992)" fill="#263238"/><path id="Pfad_27589" data-name="Pfad 27589" d="M194.018 408.741a2.311 2.311 0 01.729.079 12.218 12.218 0 012.06.428c1.791.38 4.374 1 7.528 1.87s6.894 1.965 10.983 3.36c2.044.7 4.216 1.411 6.34 2.346a20.6 20.6 0 016.244 3.946 2.539 2.539 0 01.681.84 1.062 1.062 0 01-.4 1.315 3.855 3.855 0 01-1.981.428c-1.22.1-2.425.143-3.6.174-2.361 0-4.644 0-6.815-.174-4.327-.269-8.194-.808-11.427-1.315s-5.832-1.014-7.623-1.379l-2.06-.428a2.54 2.54 0 01-.713-.206 18.138 18.138 0 012.821.317l7.655 1.109c3.17.444 7.1.919 11.4 1.157 2.155.111 4.406.174 6.752.111 1.157 0 2.361-.079 3.55-.174a3.33 3.33 0 001.585-.3c.143-.111.158-.174.111-.317a2.349 2.349 0 00-.491-.571 20.007 20.007 0 00-6.007-3.788c-2.124-.919-4.279-1.585-6.34-2.377-4.073-1.411-7.782-2.583-10.9-3.518s-5.69-1.585-7.449-2.124a21.186 21.186 0 01-2.633-.809z" transform="translate(15.246 -155.684)" fill="#263238"/><path id="Pfad_27590" data-name="Pfad 27590" d="M210 413.13c.222.079-.238 1.854 0 4.041s.84 3.883.618 3.994a7.529 7.529 0 01-.555-8.035z" transform="translate(24.129 -153.115)" fill="#263238"/><path id="Pfad_27591" data-name="Pfad 27591" d="M106.4 409.09c-.65 0-47.9 6.514-44.234 11.823s48.1.65 48.1.65z" transform="translate(-61.962 -155.478)" fill="#f8b02f"/><path id="Pfad_27592" data-name="Pfad 27592" d="M78.722 417.66c-.19.1-.872-.856-1.315-2.187a3.861 3.861 0 01-.27-2.473 6.26 6.26 0 011.046 2.282c.428 1.284.745 2.267.539 2.378z" transform="translate(-53.146 -153.191)" fill="#263238"/><path id="Pfad_27593" data-name="Pfad 27593" d="M80.372 417.971c-.19.111-1-.983-1.395-2.583s-.222-2.948 0-2.948.428 1.252.808 2.742.793 2.678.587 2.789z" transform="translate(-52.149 -153.519)" fill="#263238"/><path id="Pfad_27594" data-name="Pfad 27594" d="M82.375 417.426c-.206.1-.9-1-1.458-2.488s-.713-2.773-.491-2.837.729 1.109 1.268 2.552.887 2.678.681 2.773z" transform="translate(-51.22 -153.719)" fill="#263238"/><path id="Pfad_27595" data-name="Pfad 27595" d="M99.723 420.935a2.4 2.4 0 01-.713.159l-2.092.269c-1.823.222-4.454.475-7.718.682s-7.164.38-11.49.412c-2.171 0-4.438 0-6.815-.143a19.913 19.913 0 01-7.179-1.68 2.642 2.642 0 01-.935-.57 1.079 1.079 0 010-1.363 3.718 3.718 0 011.728-1.062c1.125-.491 2.235-.919 3.344-1.347 2.219-.808 4.406-1.474 6.5-2.06 4.184-1.157 8.019-1.9 11.237-2.472s5.848-.951 7.655-1.189l2.092-.269a2.344 2.344 0 01.729 0 18.024 18.024 0 01-2.774.618l-7.592 1.441c-3.17.65-7 1.458-11.094 2.631-2.076.6-4.232 1.268-6.34 2.092-1.094.428-2.2.856-3.312 1.331a3.337 3.337 0 00-1.379.792c-.1.159-.1.206 0 .333a2.206 2.206 0 00.666.38 19.548 19.548 0 006.894 1.585c2.314.19 4.6.174 6.752.19 4.311 0 8.194-.1 11.459-.222s5.9-.317 7.718-.428a19.907 19.907 0 012.659-.11z" transform="translate(-61.626 -154.787)" fill="#263238"/><path id="Pfad_27596" data-name="Pfad 27596" d="M70.88 420.737c-.254 0-.38-1.823-1.268-3.835s-2.06-3.407-1.886-3.566 1.728 1.03 2.647 3.17a5.735 5.735 0 01.507 4.231z" transform="translate(-58.601 -153.003)" fill="#263238"/><path id="Pfad_27597" data-name="Pfad 27597" d="M241.28 373.652h-24.042l-88.753 2.3-25.358-3.281c-3.946-.872-6.546-1.236-7.386-.967a21.564 21.564 0 00-8.669 6.593c-9.668 11.538-3.582 29.32 10.967 33.282l13.662 3.709-29.891 9.6 10.1 28.655s44.63-9.652 87.913-19.843l69.259 18.733 9.985-32.157-11.744-3.82c7.37-2.251 12.029-4.026 12.679-5.1 4.358-6.752 12.077-38.148-18.828-37.672" transform="translate(-50.354 -177.396)" fill="#455a64"/><path id="Pfad_27598" data-name="Pfad 27598" d="M210.74 399.98l-51.476 21.32-15.564-4.219z" transform="translate(-14.156 -160.806)" opacity=".2" style="isolation:isolate"/><path id="Pfad_27599" data-name="Pfad 27599" d="M100.81 374.42l65.9 18.876 50.19-17.117z" transform="translate(-39.241 -175.756)" opacity=".2" style="isolation:isolate"/><path id="Pfad_27600" data-name="Pfad 27600" d="M98.891 432.961a22.736 22.736 0 01-2.108-4.136c-1.173-2.615-2.694-6.34-4.184-10.4s-2.71-7.924-3.487-10.65a23.629 23.629 0 01-1.062-4.517 28.408 28.408 0 011.585 4.343c.919 2.71 2.2 6.451 3.693 10.539s2.932 7.782 3.962 10.444a30.671 30.671 0 011.6 4.377z" transform="translate(-46.704 -158.888)" fill="#263238"/><path id="Pfad_27601" data-name="Pfad 27601" d="M256.244 379.641a1.571 1.571 0 01-.412.174l-1.236.46-4.755 1.68-17.576 5.975c-14.914 4.977-35.549 11.712-58.419 18.892s-43.663 13.44-58.736 17.877l-17.877 5.167-4.866 1.347-1.284.333a1.7 1.7 0 01-.444.079l.428-.159 1.252-.412 4.755-1.506 17.8-5.42c15.04-4.564 35.786-10.92 58.64-18.1s43.521-13.82 58.466-18.654l17.719-5.721 4.834-1.585 1.252-.38a1.6 1.6 0 01.459-.047z" transform="translate(-45.19 -172.703)" fill="#263238"/><path id="Pfad_27602" data-name="Pfad 27602" d="M202.791 378.91a4.639 4.639 0 01-1.014.428l-2.948 1.078c-2.568.919-6.34 2.219-10.936 3.788-9.256 3.17-22.077 7.354-36.262 11.9s-27.086 8.558-36.452 11.379c-4.755 1.411-8.479 2.52-11.094 3.265l-3.027.84a7.831 7.831 0 01-1.078.238 4.775 4.775 0 011.03-.4l2.98-.983 11.094-3.518 36.357-11.6 36.325-11.681 11.015-3.534 3.011-.935a4.848 4.848 0 011-.265z" transform="translate(-39.727 -173.13)" fill="#263238"/><path id="Pfad_27603" data-name="Pfad 27603" d="M166.376 393.19c0 .222-14.787-3.8-32.9-8.986s-32.728-9.509-32.664-9.779 14.787 3.8 32.886 8.986 32.742 9.557 32.678 9.779z" transform="translate(-39.241 -175.76)" fill="#263238"/><path id="Pfad_27604" data-name="Pfad 27604" d="M192.058 400.94a165.959 165.959 0 01-5.674 15.77c-3.344 8.622-6.229 15.532-6.435 15.453a162.927 162.927 0 015.674-15.754c3.345-8.622 6.229-15.548 6.435-15.469z" transform="translate(7.046 -160.245)" fill="#263238"/><path id="Pfad_27605" data-name="Pfad 27605" d="M193.147 411.853a113.351 113.351 0 01-12.948-3.027 107.131 107.131 0 01-12.679-3.835 111.837 111.837 0 0112.948 3.027 107.112 107.112 0 0112.679 3.835z" transform="translate(-.224 -157.876)" fill="#263238"/><path id="Pfad_27606" data-name="Pfad 27606" d="M143.715 400.133a16.208 16.208 0 01-2.457-.491l-6.625-1.585c-5.579-1.426-13.3-3.36-21.713-5.9a172.74 172.74 0 01-21.158-7.75c-2.615-1.2-4.755-2.251-6.118-3.027a12.926 12.926 0 01-2.154-1.28 16.138 16.138 0 012.3 1c1.458.681 3.566 1.585 6.213 2.774a210.886 210.886 0 0021.158 7.5c8.4 2.536 16.087 4.549 21.634 6.118l6.546 1.886a12.406 12.406 0 012.374.755z" transform="translate(-49.371 -172.434)" fill="#263238"/><path id="Pfad_27607" data-name="Pfad 27607" d="M178.906 304h-1.949l-.285-6.752-26.772 1.587s.269 3.17.254 5.373c-16.483 1.585-42.9 10.048-43.537 47.15l21.142.491c-1.791 17.022-1.585 27.181-3.312 33.568-2.948 10.555-12.283 32.839-10.413 33.964s88.626 2.726 92.763.475-3.392-31.333-5.278-39.226c-1.189-5.04-1.442-16.578-1.474-25.5l24.28-1.094s1.763-50.177-45.419-50.036z" transform="translate(-35.843 -220.891)" fill="#f8b02f"/><path id="Pfad_27608" data-name="Pfad 27608" d="M160.911 301.359a16.8 16.8 0 01-3.931.666 105.07 105.07 0 01-9.6.634 92.051 92.051 0 01-9.6-.222 18.046 18.046 0 01-3.962-.507 20.229 20.229 0 013.978-.079h9.5c3.677 0 7.116-.254 9.509-.38a21.4 21.4 0 014.106-.112z" transform="translate(-19.94 -218.517)" fill="#263238"/><path id="Pfad_27609" data-name="Pfad 27609" d="M137.152 298.11c.238 0 .412 1.3.412 2.9s-.174 2.916-.412 2.916-.412-1.3-.412-2.916.111-2.9.412-2.9z" transform="translate(-18.227 -220.388)" fill="#263238"/><path id="Pfad_27610" data-name="Pfad 27610" d="M141.617 297.79c.222 0 .444 1.426.491 3.17a6.837 6.837 0 01-.317 3.17c-.238 0-.46-1.426-.507-3.17a6.575 6.575 0 01.333-3.17z" transform="translate(-15.607 -220.575)" fill="#263238"/><path id="Pfad_27611" data-name="Pfad 27611" d="M146.235 297.63c.222 0 .539 1.395.571 3.17s-.206 3.17-.444 3.17a7.74 7.74 0 01-.38-3.17c.047-1.712.047-3.154.253-3.17z" transform="translate(-12.839 -220.668)" fill="#263238"/><path id="Pfad_27612" data-name="Pfad 27612" d="M149.614 297.47c.238 0 .4 1.395.618 3.091s.4 3.09.174 3.17-.777-1.284-.983-3.059-.031-3.218.191-3.202z" transform="translate(-10.862 -220.762)" fill="#263238"/><path id="Pfad_27613" data-name="Pfad 27613" d="M122.273 337.3a39.126 39.126 0 01-.475-7.924 37.035 37.035 0 01.349-7.924 40.318 40.318 0 01.475 7.924 39.916 39.916 0 01-.349 7.924z" transform="translate(-27.01 -206.737)" fill="#263238"/><path id="Pfad_27614" data-name="Pfad 27614" d="M165.565 339.466a47.056 47.056 0 01-1.141-8.558 44.209 44.209 0 01-.3-8.638 92.119 92.119 0 011.441 17.2z" transform="translate(-2.263 -206.257)" fill="#263238"/><path id="Pfad_27615" data-name="Pfad 27615" d="M131.206 331.725a18.082 18.082 0 01-3.645.111h-17.482a17.811 17.811 0 01-3.629-.111 14.629 14.629 0 013.614-.46c2.235-.174 5.341-.3 8.764-.285s6.53.127 8.764.3a15.427 15.427 0 013.614.445z" transform="translate(-35.943 -201.163)" fill="#263238"/><path id="Pfad_27616" data-name="Pfad 27616" d="M190.4 333.29a99.562 99.562 0 01-12.917.412 99.517 99.517 0 01-12.933-.412 102.994 102.994 0 0112.933-.412 103.075 103.075 0 0112.917.412z" transform="translate(-1.961 -200.081)" fill="#263238"/><path id="Pfad_27617" data-name="Pfad 27617" d="M204.427 333.25s6.34 59.163-11.791 64.98-53.886-21.73-53.886-21.73l10.3-20.857s23.773 16.514 28.908 12.79 2.457-35.184 2.457-35.184z" transform="translate(-17.051 -199.835)" fill="#b78876"/><path id="Pfad_27618" data-name="Pfad 27618" d="M107.222 331.521s-6.45 58.561 11.665 64.393 53.886-21.745 53.886-21.745l-10.318-20.857s-23.916 15.294-28.876 11.427c-2.869-2.251-2.948-32.918-2.948-32.918-8.431-.363-16.246-.728-23.409-.3z" transform="translate(-36.144 -200.959)" fill="#b78876"/><path id="Pfad_27619" data-name="Pfad 27619" d="M207.993 339.15l-12.029 58.957s-73.919-.571-74.679-.792-7.924-58.165-7.924-58.165z" transform="translate(-31.901 -196.384)" fill="#263238"/><path id="Pfad_27620" data-name="Pfad 27620" d="M139.574 359.527a4.438 4.438 0 104.726-4.127c-.1-.006-.2-.009-.292-.009a4.311 4.311 0 00-4.434 4.136z" transform="translate(-16.575 -186.887)" fill="#fff"/><path id="Pfad_27621" data-name="Pfad 27621" d="M149.516 276.642a4.759 4.759 0 014.5-.269 4.643 4.643 0 011.68 2.948 6.136 6.136 0 01-1.347 5.373 4.186 4.186 0 01-5.23.713" transform="translate(-10.986 -233.359)" fill="#b78876"/><path id="Pfad_27622" data-name="Pfad 27622" d="M150.728 283.023c0-.127.507-.206 1.094-.65a2.584 2.584 0 001.173-2.346 2.631 2.631 0 00-1.506-2.124c-.666-.317-1.173-.3-1.189-.428s.507-.365 1.4-.143a3.027 3.027 0 01.523 5.6c-.923.345-1.495.268-1.495.091z" transform="translate(-10.296 -232.593)" fill="#a36957"/></g></g></svg>